<?xml version="1.0" encoding="utf-8"?>
<!-- Generator: Adobe Illustrator 19.0.0, SVG Export Plug-In . SVG Version: 6.00 Build 0)  -->
<svg version="1.1" id="图层_1" xmlns="http://www.w3.org/2000/svg" xmlns:xlink="http://www.w3.org/1999/xlink" x="0px" y="0px"
	 viewBox="0 0 320 320" style="enable-background:new 0 0 320 320;" xml:space="preserve">
<style type="text/css">
	.st0{fill:#FFFFFF;letter-spacing:6px;}
	.st1{font-family:'SourceHanSansCN-Normal';}
	.st2{font-size:34.1881px;text-align:center;}
</style>
<path id="XMLID_1_" class="st0" d="M131.8,83.4h17.9c0.6,0,1.2-0.5,1.2-1.2v-3.9c0-0.6-0.5-1.2-1.2-1.2h-17.9
	c-0.6,0-1.2,0.5-1.2,1.2v3.9C130.6,82.9,131.2,83.4,131.8,83.4"/>
<path id="XMLID_2_" class="st0" d="M199.6,84.3h50.8c0.6,0,1.2-0.5,1.2-1.2V79c0-0.6-0.5-1.2-1.2-1.2h-50.8c-0.6,0-1.2,0.5-1.2,1.2
	v4.2C198.4,83.8,199,84.3,199.6,84.3"/>
<path id="XMLID_3_" class="st0" d="M252.5,101.5h-55.1c-0.6,0-1.2,0.5-1.2,1.2v4.2c0,0.6,0.5,1.2,1.2,1.2h10.3l-8.4,22.2
	c-0.4,1-0.2,2.1,0.4,3c0.6,0.9,1.6,1.4,2.7,1.4h28.2h2.7h10.4c4.5,0,8-3.6,8-8v-8.2c0-0.6-0.5-1.2-1.2-1.2h-4.2
	c-0.6,0-1.2,0.5-1.2,1.2v7.4c0,1.1-0.3,2.2-2.1,2.2h-9.7h-2.7h-23.5l7.6-20.1h37.8c0.6,0,1.2-0.5,1.2-1.2v-4.2
	C253.7,102,253.2,101.5,252.5,101.5"/>
<path id="XMLID_4_" class="st0" d="M284.8,125.7v-3.9c0-0.6-0.5-1.2-1.2-1.2h-1.1V83.2h1.1c0.6,0,1.2-0.5,1.2-1.2v-3.9
	c0-0.6-0.5-1.2-1.2-1.2h-22.1c-0.6,0-1.2,0.5-1.2,1.2V82c0,0.6,0.5,1.2,1.2,1.2h1.2v37.4h-1.2c-0.6,0-1.2,0.5-1.2,1.2v3.9
	c0,0.6,0.5,1.2,1.2,1.2h14.7v6.5c0,0.6,0.5,1.2,1.2,1.2h3.9c0.6,0,1.2-0.5,1.2-1.2v-6.5h1.1C284.3,126.9,284.8,126.4,284.8,125.7
	 M269,97.8h7.3v8.3H269V97.8z M276.3,91.5H269v-8.3h7.3V91.5z M269,112.3h7.3v8.3H269V112.3z"/>
<path id="XMLID_9_" class="st0" d="M318.8,130.3l-1-1c0,0,0,0,0,0c-4.6-4.3-8.2-8.6-10.5-12.7c-1.1-2-1.9-3.7-2.3-5.1H318
	c0.6,0,1.2-0.5,1.2-1.2v-3.9c0-0.6-0.5-1.2-1.2-1.2h-13.8V91.9h11.7c0.6,0,1.2-0.5,1.2-1.2v-3.9c0-0.6-0.5-1.2-1.2-1.2h-4.8
	c1.3-3.5,2.3-6.2,2.5-6.8c0-0.1,0,0,0-0.1c0-0.1,0.1-0.2,0.1-0.4c0-0.6-0.5-1.2-1.2-1.2h-4.2c-0.5,0-0.9,0.3-1.1,0.8
	c0,0,0,0.1,0,0.1l-2.9,7.6h-5l-2.9-7.6c0,0,0,0,0-0.1c-0.2-0.4-0.6-0.8-1.1-0.8h-4.2c-0.7,0-1.2,0.6-1.2,1.2c0,0.2,0,0.3,0.1,0.4
	c0,0.1,0,0,0,0.1c0.2,0.6,1.2,3.3,2.5,6.8h-4.8c-0.6,0-1.2,0.5-1.2,1.2v3.9c0,0.6,0.5,1.2,1.2,1.2h10v13.3h-11.5
	c-0.6,0-1.2,0.5-1.2,1.2v3.9c0,0.6,0.5,1.2,1.2,1.2h11c-1.4,5.9-5.3,11.9-11.7,17.9l-1,0.9c-0.5,0.4-0.5,1.2-0.1,1.6l2.7,2.9
	c0.4,0.5,1.2,0.5,1.6,0.1l0.1-0.1c5.7-5.2,9.8-10.5,12.3-15.9c0.1,0.3,0.3,0.5,0.4,0.8c2.8,4.9,7.1,10,12.6,15.1l0.1,0.1
	c0.5,0.4,1.2,0.4,1.7-0.1l2.7-2.9C319.3,131.5,319.3,130.7,318.8,130.3"/>
<path id="XMLID_10_" class="st0" d="M187.1,128.5h-8.3c-0.9,0-1.6-0.2-2-0.5c-0.3-0.3-0.5-1-0.5-2v-13.8c0-0.6-0.5-1.2-1.2-1.2h-2.7
	c1-3.9,1.2-7.3,1.2-9.9V89.4c0-0.6-0.5-1.2-1.2-1.2h-3.9c-0.6,0-1.2,0.5-1.2,1.2v11.8c0,6.9-1.9,13.3-5.6,18.9
	c-3.6,5.5-8,8.6-10.2,10.1l0,0c-0.3,0.2-0.4,0.6-0.4,0.9c0,0.2,0.1,0.4,0.2,0.6l2.5,3.3l0,0c0.2,0.2,0.5,0.4,0.9,0.4
	c0.2,0,0.5-0.1,0.7-0.2c6.5-4.3,11.4-9.9,14.5-16.7c0.1-0.2,0.1-0.3,0.2-0.5v8.8c0,4.4,3.5,8,8,8h9c0.6,0,1.2-0.5,1.2-1.2v-3.9
	C188.3,129.1,187.7,128.5,187.1,128.5"/>
<path id="XMLID_11_" class="st0" d="M155.5,116h3.9c0.6,0,1.2-0.5,1.2-1.2V85.7c0-1.2,0.3-2.2,2.2-2.2h15.5c1.1,0,2.2,0.3,2.2,2.2
	v29.2c0,0.6,0.5,1.2,1.2,1.2h3.9c0.6,0,1.2-0.5,1.2-1.2V85.2c0-4.2-3.3-8-8-8h-16.3c-4.5,0-8,3.7-8,8v29.7
	C154.3,115.5,154.9,116,155.5,116"/>
<path id="XMLID_12_" class="st0" d="M121.1,108.6c0.6,0,1.2-0.5,1.2-1.2v-3.9c0-0.6-0.5-1.2-1.2-1.2H99.9v-13c0-0.6-0.5-1.2-1.2-1.2
	h-3.9c-0.6,0-1.2,0.5-1.2,1.2v13h-19c-0.5,0-1-0.2-1.3-0.6c-0.3-0.4-0.5-0.9-0.5-1.4c0-0.1,1.4-14.4,1.4-14.5
	c0.1-0.7,0.7-1.5,1.7-1.6c0.1,0,40.2-1.3,41.4-1.4l0.5,0c0.3,0,0.6-0.1,0.8-0.4c0.2-0.2,0.3-0.5,0.3-0.8l-0.1-3.9
	c0-0.6-0.5-1.1-1.2-1.1l-0.3,0v0c0,0-0.2,0-0.3,0l-1,0c0,0,0,0,0,0c-7.2,0.2-40.4,1.3-40.5,1.3c-2.1,0.1-3.9,0.9-5.3,2.4
	c-1.3,1.3-2.1,3.1-2.3,5c0,0.4-0.9,9.8-1.4,14.5c-0.2,2.3,0.5,4.5,2,6.1c1.5,1.7,3.7,2.6,5.9,2.6h19v17.5c0,0.9-0.2,1.7-0.5,2
	c-0.3,0.3-1,0.5-2,0.5h-6c-0.6,0-1.2,0.5-1.2,1.2v3.9c0,0.6,0.5,1.2,1.2,1.2h6.7c4.5,0,8-3.6,8-8v-18.2H121.1z"/>
<path id="XMLID_13_" class="st0" d="M73.9,114.6l-3.9-0.3c-0.7-0.1-1.2,0.4-1.3,1.1l-1.5,17c-0.1,0.6,0.4,1.2,1.1,1.3
	c0,0,4,0.3,4,0.3c0.6,0,1.1-0.5,1.2-1.1l1.5-17c0-0.3-0.1-0.6-0.3-0.9C74.5,114.8,74.2,114.7,73.9,114.6"/>
<path id="XMLID_14_" class="st0" d="M119.1,114.1c-0.1,0-4.1,0.6-4.1,0.6c-0.3,0-0.6,0.2-0.8,0.5c-0.2,0.2-0.3,0.6-0.2,0.9l2.4,17.1
	c0.1,0.6,0.6,1,1.2,1c0.1,0,4.1-0.6,4.1-0.6c0.6-0.1,1.1-0.7,1-1.3l-2.4-17.1C120.2,114.5,119.7,114.1,119.1,114.1"/>
<path id="XMLID_15_" class="st0" d="M152.9,115.1c0-0.3-0.1-0.6-0.3-0.8l-7.2-8.1l3.3-3.7c1.3-1.5,2.7-4,2.7-6.9v-4.6
	c0-1.7-1.4-3.1-3.1-3.1h-16.4c-0.6,0-1.2,0.5-1.2,1.2v3.9c0,0.6,0.5,1.2,1.2,1.2h13.3v1.5c0,1-0.6,2.1-1.1,2.7l-13.2,14.8
	c0,0,0,0,0,0l-0.4,0.4l-0.2,0.2l-0.5,0.6c-0.2,0.2-0.3,0.5-0.3,0.8c0,0.3,0.2,0.6,0.4,0.8l2.9,2.6c0.2,0.2,0.5,0.3,0.8,0.3
	c0.3,0,0.6-0.2,0.8-0.4l1-1.2l2.5-2.8v19.2c0,0.6,0.5,1.2,1.2,1.2h3.9c0.6,0,1.2-0.5,1.2-1.2v-19.2l3.6,4c0.2,0.2,0.5,0.4,0.8,0.4
	c0.3,0,0.6-0.1,0.8-0.3l2.9-2.6C152.7,115.7,152.8,115.4,152.9,115.1"/>
<path id="XMLID_16_" class="st0" d="M2.7,85.3h26.7c0.6,0,1.1-0.5,1.1-1.1v-3.6c0-0.6-0.5-1.1-1.1-1.1h-9.7v-1.8
	c0-0.6-0.5-1.1-1.1-1.1h-3.9c-0.6,0-1.1,0.5-1.1,1.1v1.8h-11c-0.6,0-1.1,0.5-1.1,1.1v3.6C1.6,84.8,2.1,85.3,2.7,85.3"/>
<path id="XMLID_17_" class="st0" d="M57.6,94.3h-18c0.1-2.7,0.1-5.5,0.1-8.4c0-0.8,0.6-1.6,1.6-1.7c1-0.1,15.9-1.1,15.9-1.1v0l0.4,0
	c0.6,0,1-0.6,1-1.1l-0.2-3.6c0-0.6-0.6-1-1.1-1l-0.4,0c0,0-11.8,0.8-15.9,1.1c-4.2,0.3-7.1,4-7,7.5c0.2,3.5-0.8,28.2-1.4,35.1
	c-0.6,6.7-1.2,10.2-1.3,11.2c0,0,0,0,0,0l0,0.2c0,0,0,0.1,0,0.1h0l-0.1,0.4c-0.1,0.6,0.3,1.1,0.9,1.2l3.6,0.6
	c0.6,0.1,1.1-0.3,1.2-0.9l0-0.3c0.1-0.5,2-9.5,2.7-33.6H49v34.3c0,0.6,0.5,1.1,1.1,1.1H54c0.6,0,1.1-0.5,1.1-1.1V100h2.5
	c0.6,0,1.1-0.5,1.1-1.1v-3.6C58.6,94.7,58.2,94.3,57.6,94.3"/>
<path id="XMLID_18_" class="st0" d="M29.6,96.3h-3.7c1.4-3.8,2.4-6.4,2.6-6.9c0-0.1,0,0,0-0.1c0-0.1,0.1-0.2,0.1-0.4
	c0-0.5-0.4-1.1-1.1-1.1h-3.7c-0.4,0-0.8,0.3-1,0.7c0,0,0,0.1,0,0.1l-2.9,7.7h-6.5l-2.9-7.7c0,0,0,0,0-0.1c-0.1-0.4-0.6-0.7-1-0.7
	H5.9c-0.6,0-1.1,0.5-1.1,1.1c0,0.2,0,0.3,0.1,0.4c0,0.1,0,0,0,0.1c0.2,0.5,1.1,3.1,2.6,6.9H2.7c-0.6,0-1.1,0.5-1.1,1.1v3.6
	c0,0.6,0.5,1.1,1.1,1.1h10.9v6H2.7c-0.6,0-1.1,0.5-1.1,1.1v3.6c0,0.6,0.5,1.1,1.1,1.1h10.9v13.9c-0.1,1-0.9,1.8-1.9,1.8h-0.3h-0.8
	c-0.4,0-1,0.5-1,1.2v3.4c0,0.7,0.5,1.2,1.2,1.2h0.5h1.1c4,0,7.2-3.2,7.2-7.2v-1.1v-13.2h9.9c0.6,0,1.1-0.5,1.1-1.1v-3.6
	c0-0.6-0.5-1.1-1.1-1.1h-9.9v-6h9.9c0.6,0,1.1-0.5,1.1-1.1v-3.6C30.6,96.8,30.1,96.3,29.6,96.3"/>
<path id="XMLID_19_" class="st0" d="M7.8,117.6l-3.6-0.3c-0.6-0.1-1.1,0.4-1.2,1l0,0.4h0c-0.3,3.3-1,8.4-1.7,12.4h0l-0.1,0.3
	c-0.1,0.6,0.3,1.1,0.8,1.3l3.6,0.7c0.6,0.1,1.1-0.3,1.3-0.8l0.1-0.4h0c0-0.1,0-0.1,0-0.2l0-0.2c0,0,0,0,0-0.1
	c0.7-4,1.4-9.1,1.7-12.5l0,0l0-0.4C8.9,118.2,8.4,117.7,7.8,117.6"/>
<path id="XMLID_20_" class="st0" d="M30,131.4L30,131.4c-0.5-5.1-1-8.9-1.7-12.9h0l-0.1-0.3c-0.1-0.6-0.6-1-1.2-0.9l-3.6,0.6
	c-0.6,0.1-1,0.6-0.9,1.2l0.1,0.4l0,0c0.7,3.9,1.1,7.5,1.7,12.5h0l0,0.4c0.1,0.6,0.6,1,1.2,1l3.6-0.4c0.6-0.1,1-0.6,1-1.2L30,131.4z"
	/>
<text id="XMLID_21_" transform="matrix(1 0 0 1 0 216.2547)" class="st0 st1 st2">引   领   视   频   生   态</text>
</svg>
